<svg xmlns="http://www.w3.org/2000/svg" viewBox="0 0 41 42" width="41" height="42">
  <defs>
    <linearGradient id="galGrad" x1="6" y1="8" x2="33" y2="37" gradientUnits="userSpaceOnUse">
      <stop offset="0%" stop-color="#ffa8de"/>
      <stop offset="35%" stop-color="#ec3fa8"/>
      <stop offset="70%" stop-color="#a01a78"/>
      <stop offset="100%" stop-color="#4a0e3f"/>
    </linearGradient>
    <filter id="galShadow" x="-20%" y="-20%" width="140%" height="140%">
      <feDropShadow dx="0.6" dy="0.8" stdDeviation="0.7" flood-color="#000000" flood-opacity="0.35"/>
    </filter>
  </defs>
  <g filter="url(#galShadow)">
    <path d="M6.5,14.5 L9,10.5 L13,14 L16,10.5 L19,14 L22,10.5 L25.5,14.5 L25.5,33.5 Q25.5,36.5 22.5,36.5 L9.5,36.5 Q6.5,36.5 6.5,33.5 Z"
          fill="#33062b" stroke="url(#galGrad)" stroke-width="2.2" stroke-linejoin="round"/>
    <rect x="25.5" y="17" width="6.5" height="12.5" rx="2.2" fill="#33062b" stroke="url(#galGrad)" stroke-width="2"/>
    <path d="M16,26.5 C13.5,24.3 12,22.8 12,20.9 C12,19.3 13.3,18 14.9,18.3 C15.9,18.5 16.6,19.2 16,19.4 C16.4,19.2 17.1,18.5 18.1,18.3 C19.7,18 21,19.3 21,20.9 C21,22.8 19.5,24.3 16,26.5 Z"
          fill="url(#galGrad)"/>
  </g>
</svg>
