<svg xmlns="http://www.w3.org/2000/svg" viewBox="0 0 29 45" width="29" height="45">
  <defs>
    <linearGradient id="giftGrad" x1="3" y1="2" x2="26" y2="42" gradientUnits="userSpaceOnUse">
      <stop offset="0%" stop-color="#ffa8de"/>
      <stop offset="35%" stop-color="#ec3fa8"/>
      <stop offset="70%" stop-color="#a01a78"/>
      <stop offset="100%" stop-color="#4a0e3f"/>
    </linearGradient>
    <filter id="giftShadow" x="-20%" y="-20%" width="140%" height="140%">
      <feDropShadow dx="0.5" dy="0.8" stdDeviation="0.6" flood-color="#000000" flood-opacity="0.35"/>
    </filter>
  </defs>
  <g filter="url(#giftShadow)">
    <path d="M14.5,13 C10,13 4,10.3 4,6.3 C4,3.3 7,1.8 9.3,3.8 C12.3,6.3 14,10 14.5,13 Z" fill="#33062b" stroke="url(#giftGrad)" stroke-width="2.1" stroke-linejoin="round"/>
    <path d="M14.5,13 C19,13 25,10.3 25,6.3 C25,3.3 22,1.8 19.7,3.8 C16.7,6.3 15,10 14.5,13 Z" fill="#33062b" stroke="url(#giftGrad)" stroke-width="2.1" stroke-linejoin="round"/>
    <rect x="1.2" y="13" width="26.6" height="7.5" rx="2" fill="#33062b" stroke="url(#giftGrad)" stroke-width="2.2"/>
    <rect x="3.2" y="18.5" width="22.6" height="23.5" rx="2.5" fill="#33062b" stroke="url(#giftGrad)" stroke-width="2.2"/>
    <rect x="12.3" y="13" width="4.4" height="29" fill="url(#giftGrad)"/>
  </g>
</svg>
