<svg xmlns="http://www.w3.org/2000/svg" viewBox="0 0 43 44" fill="none">
  <defs>
    <linearGradient id="homeBg" x1="2" y1="2" x2="41" y2="42" gradientUnits="userSpaceOnUse">
      <stop offset="0" stop-color="#2b0a1f"/>
      <stop offset="1" stop-color="#0a0308"/>
    </linearGradient>
    <linearGradient id="homeStroke" x1="6" y1="8" x2="37" y2="36" gradientUnits="userSpaceOnUse">
      <stop offset="0" stop-color="#ff6fa8"/>
      <stop offset="1" stop-color="#5c6bd8"/>
    </linearGradient>
  </defs>
  <rect x="1.5" y="1.5" width="40" height="41" rx="10" fill="url(#homeBg)"/>
  <rect x="1.5" y="1.5" width="40" height="41" rx="10" fill="none" stroke="url(#homeStroke)" stroke-width="1.2" opacity="0.55"/>
  <path d="M12.5 22 L21.5 10.5 L30.5 22" fill="none" stroke="url(#homeStroke)" stroke-width="2.4" stroke-linecap="round" stroke-linejoin="round"/>
  <rect x="25.5" y="12" width="3.2" height="5.5" fill="url(#homeStroke)"/>
  <path d="M15 21.5 L15 33 L28 33 L28 21.5" fill="none" stroke="url(#homeStroke)" stroke-width="2.4" stroke-linecap="round" stroke-linejoin="round"/>
  <path d="M21.5 30 C19.8 28.3 18 27 18 25.2 C18 24 19 23.1 20.2 23.1 C20.8 23.1 21.3 23.4 21.5 23.9 C21.7 23.4 22.2 23.1 22.8 23.1 C24 23.1 25 24 25 25.2 C25 27 23.2 28.3 21.5 30 Z" fill="url(#homeStroke)"/>
</svg>
