<svg xmlns="http://www.w3.org/2000/svg" viewBox="0 0 257 243" fill="none">
  <defs>
    <linearGradient id="maleGrad" x1="45" y1="12" x2="116" y2="113" gradientUnits="userSpaceOnUse">
      <stop offset="0" stop-color="#4a86ec"/>
      <stop offset="1" stop-color="#173a93"/>
    </linearGradient>
    <linearGradient id="femaleGrad" x1="212" y1="12" x2="141" y2="113" gradientUnits="userSpaceOnUse">
      <stop offset="0" stop-color="#ff86bf"/>
      <stop offset="1" stop-color="#d81877"/>
    </linearGradient>
    <linearGradient id="infinityGrad" x1="33" y1="148" x2="224" y2="148" gradientUnits="userSpaceOnUse">
      <stop offset="0" stop-color="#3f7ce6"/>
      <stop offset="0.48" stop-color="#8a63c9"/>
      <stop offset="1" stop-color="#ff2f8f"/>
    </linearGradient>
    <linearGradient id="heartGrad" x1="113" y1="2" x2="144" y2="26" gradientUnits="userSpaceOnUse">
      <stop offset="0" stop-color="#ff7aa2"/>
      <stop offset="1" stop-color="#f23a63"/>
    </linearGradient>
    <linearGradient id="twinGrad" x1="10" y1="165" x2="120" y2="215" gradientUnits="userSpaceOnUse">
      <stop offset="0" stop-color="#3f7ce6"/>
      <stop offset="1" stop-color="#1e4fb8"/>
    </linearGradient>
    <linearGradient id="soulGrad" x1="128" y1="165" x2="230" y2="215" gradientUnits="userSpaceOnUse">
      <stop offset="0" stop-color="#ff5aa6"/>
      <stop offset="1" stop-color="#e21a72"/>
    </linearGradient>
  </defs>

  <!-- infinity ribbon (bodies forming infinity) -->
  <path d="M 223.5,148.0 L 223.3,151.8 L 222.8,155.5 L 221.8,159.0 L 220.5,162.5 L 218.9,165.6 L 216.8,168.5 L 214.5,171.1 L 211.7,173.3 L 208.7,175.1 L 205.4,176.5 L 201.7,177.5 L 197.8,177.9 L 193.5,177.9 L 189.1,177.5 L 184.3,176.5 L 179.4,175.1 L 174.3,173.3 L 168.9,171.1 L 163.5,168.5 L 157.9,165.6 L 152.1,162.5 L 146.3,159.0 L 140.4,155.5 L 134.5,151.8 L 128.5,148.0 L 122.5,144.2 L 116.6,140.5 L 110.7,137.0 L 104.9,133.5 L 99.1,130.4 L 93.5,127.5 L 88.1,124.9 L 82.7,122.7 L 77.6,120.9 L 72.7,119.5 L 67.9,118.5 L 63.5,118.1 L 59.2,118.1 L 55.3,118.5 L 51.6,119.5 L 48.3,120.9 L 45.3,122.7 L 42.5,124.9 L 40.2,127.5 L 38.1,130.4 L 36.5,133.5 L 35.2,137.0 L 34.2,140.5 L 33.7,144.2 L 33.5,148.0 L 33.7,151.8 L 34.2,155.5 L 35.2,159.0 L 36.5,162.5 L 38.1,165.6 L 40.2,168.5 L 42.5,171.1 L 45.3,173.3 L 48.3,175.1 L 51.6,176.5 L 55.3,177.5 L 59.2,177.9 L 63.5,177.9 L 67.9,177.5 L 72.7,176.5 L 77.6,175.1 L 82.7,173.3 L 88.1,171.1 L 93.5,168.5 L 99.1,165.6 L 104.9,162.5 L 110.7,159.0 L 116.6,155.5 L 122.5,151.8 L 128.5,148.0 L 134.5,144.2 L 140.4,140.5 L 146.3,137.0 L 152.1,133.5 L 157.9,130.4 L 163.5,127.5 L 168.9,124.9 L 174.3,122.7 L 179.4,120.9 L 184.3,119.5 L 189.1,118.5 L 193.5,118.1 L 197.8,118.1 L 201.7,118.5 L 205.4,119.5 L 208.7,120.9 L 211.7,122.7 L 214.5,124.9 L 216.8,127.5 L 218.9,130.4 L 220.5,133.5 L 221.8,137.0 L 222.8,140.5 L 223.3,144.2 L 223.5,148.0"
        fill="none" stroke="url(#infinityGrad)" stroke-width="21" stroke-linecap="round"/>

  <!-- male profile silhouette -->
  <path fill="url(#maleGrad)" d="M 70,20
    C 56,20 45,32 45,48
    C 45,58 50,66 58,71
    C 50,76 42,82 40,92
    C 38,100 40,108 46,113
    L 96,113
    C 100,106 100,98 96,92
    C 100,86 102,78 98,71
    C 104,66 108,58 106,50
    C 112,48 116,43 116,37
    C 116,31 111,26 104,25
    C 100,17 91,12 82,12
    C 78,12 74,15 70,20 Z"/>

  <!-- female profile silhouette (mirrored) -->
  <path fill="url(#femaleGrad)" d="M 187,20
    C 201,20 212,32 212,48
    C 212,58 207,66 199,71
    C 207,76 215,82 217,92
    C 219,100 217,108 211,113
    L 161,113
    C 157,106 157,98 161,92
    C 157,86 155,78 159,71
    C 153,66 149,58 151,50
    C 145,48 141,43 141,37
    C 141,31 146,26 153,25
    C 157,17 166,12 175,12
    C 179,12 183,15 187,20 Z"/>

  <!-- flowing hair strand for female -->
  <path fill="url(#femaleGrad)" d="M 212,45
    C 222,50 230,60 228,72
    C 226,82 218,88 210,90
    C 218,84 220,74 216,66
    C 220,60 218,52 212,45 Z"/>

  <!-- small heart above where faces meet -->
  <path fill="url(#heartGrad)" d="M128.5,27 C121,20 113,15 113,9 C113,5 116.2,2.2 119.7,2.2 C123.2,2.2 126.3,4.3 128.5,7.8 C130.7,4.3 133.8,2.2 137.3,2.2 C140.8,2.2 144,5 144,9 C144,15 136,20 128.5,27 Z"/>

  <!-- wordmark: Twin (blue cursive strokes) -->
  <g fill="none" stroke="url(#twinGrad)" stroke-width="5.4" stroke-linecap="round" stroke-linejoin="round">
    <path d="M 14,178 C 22,172 34,170 44,174"/>
    <path d="M 29,172 C 27,185 26,198 30,208 C 33,214 40,213 42,206"/>
    <path d="M 42,206 C 46,198 50,196 53,202 C 56,208 58,208 60,200 C 62,192 64,190 66,196 C 68,202 70,204 74,198"/>
    <path d="M 84,192 C 84,198 84,206 82,210"/>
    <path d="M 84,198 C 88,212 92,212 94,204 C 96,196 96,190 100,190 C 104,190 106,196 108,204 C 110,210 112,210 116,204"/>
  </g>
  <circle cx="83" cy="180" r="2.6" fill="url(#twinGrad)"/>

  <!-- wordmark: Soul (pink cursive strokes) -->
  <g fill="none" stroke="url(#soulGrad)" stroke-width="5.4" stroke-linecap="round" stroke-linejoin="round">
    <path d="M 138,182 C 132,176 124,178 124,186 C 124,192 132,194 136,198 C 140,202 140,210 132,212 C 126,213 122,210 120,206"/>
    <path d="M 152,192 C 146,192 146,200 146,204 C 146,210 152,212 156,208 C 160,204 160,196 156,192 C 154,190 153,190 152,192 Z"/>
    <path d="M 166,190 C 166,200 166,208 172,208 C 178,208 180,202 180,194"/>
    <path d="M 180,190 C 182,196 186,196 188,192"/>
    <path d="M 196,165 C 194,180 194,196 198,208 C 200,213 204,213 206,207"/>
  </g>

  <!-- tagline -->
  <line x1="24" y1="229" x2="38" y2="229" stroke="#9a9a9a" stroke-width="1"/>
  <line x1="219" y1="229" x2="233" y2="229" stroke="#9a9a9a" stroke-width="1"/>
  <text x="128.5" y="232" text-anchor="middle" font-family="Arial, Helvetica, sans-serif" font-size="7" letter-spacing="0.8" fill="#9a9a9a">CONNECTED HEARTS, UNITED SOULS</text>
</svg>
