<svg xmlns="http://www.w3.org/2000/svg" viewBox="0 0 52 38">
  <defs>
    <linearGradient id="fillGrad" x1="0" y1="0" x2="0" y2="1">
      <stop offset="0" stop-color="#4A0A34"/>
      <stop offset="1" stop-color="#1E0316"/>
    </linearGradient>
    <linearGradient id="strokeGrad" x1="0" y1="0" x2="1" y2="1">
      <stop offset="0" stop-color="#FFCCE6"/>
      <stop offset="0.5" stop-color="#FF5FA8"/>
      <stop offset="1" stop-color="#C21464"/>
    </linearGradient>
  </defs>

  <!-- controller body -->
  <path d="M15,7
           Q10,7 9,13
           L7,25
           Q5.5,32 12,32.5
           Q17,33 19,27
           Q20.5,24 26,24
           Q31.5,24 33,27
           Q35,33 40,32.5
           Q46.5,32 45,25
           L43,13
           Q42,7 37,7
           L34,7
           Q32.5,10.5 26,10.5
           Q19.5,10.5 18,7
           Z"
        fill="url(#fillGrad)" stroke="url(#strokeGrad)" stroke-width="1.9" stroke-linejoin="round"/>

  <!-- heart button (left) -->
  <path d="M18,17.3
           C16.6,15.4 14,15.9 14,18.1
           C14,19.7 16,21 18,23
           C20,21 22,19.7 22,18.1
           C22,15.9 19.4,15.4 18,17.3 Z"
        fill="#FF6FB0"/>
  <line x1="18" y1="13.5" x2="18" y2="16.5" stroke="#FF6FB0" stroke-width="1.4" stroke-linecap="round"/>

  <!-- d-pad (right) -->
  <g fill="#FFD9EC">
    <rect x="33.3" y="14.5" width="2.4" height="2.4" rx="0.6"/>
    <rect x="33.3" y="21.5" width="2.4" height="2.4" rx="0.6"/>
    <rect x="29.8" y="18" width="2.4" height="2.4" rx="0.6"/>
    <rect x="36.8" y="18" width="2.4" height="2.4" rx="0.6"/>
  </g>
</svg>
