<svg xmlns="http://www.w3.org/2000/svg" viewBox="0 0 248 144">
  <defs>
    <linearGradient id="pinkHeart2" x1="0" y1="0" x2="0.6" y2="1">
      <stop offset="0" stop-color="#FFB9D6"/>
      <stop offset="0.45" stop-color="#FF4F93"/>
      <stop offset="1" stop-color="#E5165E"/>
    </linearGradient>
    <linearGradient id="purpleHeart2" x1="0.4" y1="0" x2="1" y2="1">
      <stop offset="0" stop-color="#FF9FE0"/>
      <stop offset="0.45" stop-color="#C24DE0"/>
      <stop offset="1" stop-color="#7A3FE0"/>
    </linearGradient>
    <linearGradient id="cutout2" x1="0" y1="0" x2="0" y2="1">
      <stop offset="0" stop-color="#2E0A2A"/>
      <stop offset="1" stop-color="#12030F"/>
    </linearGradient>
  </defs>

  <!-- right (purple) heart -->
  <path fill="url(#purpleHeart2)"
    d="M 145.00,128.00 C 91.10,78.00 96.00,28.00 120.50,28.00 C 140.10,28.00 145.00,58.00 145.00,73.00 C 145.00,58.00 149.90,28.00 169.50,28.00 C 194.00,28.00 198.90,78.00 145.00,128.00 Z"/>
  <path fill="url(#cutout2)"
    d="M 145.00,92.50 C 118.05,67.50 120.50,42.50 132.75,42.50 C 142.55,42.50 145.00,57.50 145.00,65.00 C 145.00,57.50 147.45,42.50 157.25,42.50 C 169.50,42.50 171.95,67.50 145.00,92.50 Z"/>

  <!-- left (pink) heart -->
  <path fill="url(#pinkHeart2)"
    d="M 96.00,128.00 C 42.10,78.00 47.00,28.00 71.50,28.00 C 91.10,28.00 96.00,58.00 96.00,73.00 C 96.00,58.00 100.90,28.00 120.50,28.00 C 145.00,28.00 149.90,78.00 96.00,128.00 Z"/>
  <path fill="url(#cutout2)"
    d="M 96.00,92.50 C 69.05,67.50 71.50,42.50 83.75,42.50 C 93.55,42.50 96.00,57.50 96.00,65.00 C 96.00,57.50 98.45,42.50 108.25,42.50 C 120.50,42.50 122.95,67.50 96.00,92.50 Z"/>

  <!-- crossing accent where the two rings interlock -->
  <path d="M120.5,28.6 C123.6,32 125.4,35.4 125.4,39.6 C125.4,44 122.8,47.6 120.5,51.2 C118.2,47.6 115.6,44 115.6,39.6 C115.6,35.4 117.4,32 120.5,28.6 Z" fill="#FFD9EE" opacity="0.95"/>
  <rect x="116.5" y="45" width="8" height="8" rx="1.2" transform="rotate(45 120.5 49)" fill="#F2A6E0"/>
</svg>
