<svg xmlns="http://www.w3.org/2000/svg" viewBox="0 0 57 54">
  <defs>
    <linearGradient id="pinkHeart" x1="0" y1="0" x2="0.6" y2="1">
      <stop offset="0" stop-color="#FFB9D6"/>
      <stop offset="0.45" stop-color="#FF4F93"/>
      <stop offset="1" stop-color="#E5165E"/>
    </linearGradient>
    <linearGradient id="purpleHeart" x1="0.4" y1="0" x2="1" y2="1">
      <stop offset="0" stop-color="#FF9FE0"/>
      <stop offset="0.45" stop-color="#C24DE0"/>
      <stop offset="1" stop-color="#7A3FE0"/>
    </linearGradient>
    <linearGradient id="cutout" x1="0" y1="0" x2="0" y2="1">
      <stop offset="0" stop-color="#2E0A2A"/>
      <stop offset="1" stop-color="#12030F"/>
    </linearGradient>
  </defs>

  <!-- right (purple) heart -->
  <path fill="url(#purpleHeart)"
    d="M 37.00,49.00 C 18.30,29.00 20.00,9.00 28.50,9.00 C 35.30,9.00 37.00,21.00 37.00,27.00 C 37.00,21.00 38.70,9.00 45.50,9.00 C 54.00,9.00 55.70,29.00 37.00,49.00 Z"/>
  <path fill="url(#cutout)"
    d="M 37.00,35.50 C 27.65,25.50 28.50,15.50 32.75,15.50 C 36.15,15.50 37.00,21.50 37.00,24.50 C 37.00,21.50 37.85,15.50 41.25,15.50 C 45.50,15.50 46.35,25.50 37.00,35.50 Z"/>

  <!-- left (pink) heart, on top in the overlap zone -->
  <path fill="url(#pinkHeart)"
    d="M 20.00,49.00 C 1.30,29.00 3.00,9.00 11.50,9.00 C 18.30,9.00 20.00,21.00 20.00,27.00 C 20.00,21.00 21.70,9.00 28.50,9.00 C 37.00,9.00 38.70,29.00 20.00,49.00 Z"/>
  <path fill="url(#cutout)"
    d="M 20.00,35.50 C 10.65,25.50 11.50,15.50 15.75,15.50 C 19.15,15.50 20.00,21.50 20.00,24.50 C 20.00,21.50 20.85,15.50 24.25,15.50 C 28.50,15.50 29.35,25.50 20.00,35.50 Z"/>

  <!-- crossing accent where the two rings interlock -->
  <path d="M28.5,9.2 C29.8,10.6 30.6,12 30.6,13.6 C30.6,15.4 29.4,16.8 28.5,18.2 C27.6,16.8 26.4,15.4 26.4,13.6 C26.4,12 27.2,10.6 28.5,9.2 Z" fill="#FFD9EE" opacity="0.95"/>
  <rect x="27" y="16.5" width="3" height="3" rx="0.5" transform="rotate(45 28.5 18)" fill="#F2A6E0"/>
</svg>
