<svg xmlns="http://www.w3.org/2000/svg" viewBox="0 0 100 87">
  <defs>
    <linearGradient id="ring" x1="15%" y1="0%" x2="85%" y2="100%">
      <stop offset="0%" stop-color="#fed4ec"/>
      <stop offset="40%" stop-color="#fcb5e2"/>
      <stop offset="70%" stop-color="#ca0f63"/>
      <stop offset="100%" stop-color="#6f0335"/>
    </linearGradient>
    <linearGradient id="innerRing" x1="15%" y1="0%" x2="85%" y2="100%">
      <stop offset="0%" stop-color="#fcdcee"/>
      <stop offset="100%" stop-color="#e33a86"/>
    </linearGradient>
    <radialGradient id="fill" cx="35%" cy="22%" r="82%">
      <stop offset="0%" stop-color="#5c0334"/>
      <stop offset="60%" stop-color="#340120"/>
      <stop offset="100%" stop-color="#170109"/>
    </radialGradient>
  </defs>
  <path d="M50,84 C20,62 4,40 4,24 C4,10 16,2 28,2 C38,2 46,8 50,18 C54,8 62,2 72,2 C84,2 96,10 96,24 C96,40 80,62 50,84 Z"
        fill="url(#fill)" stroke="url(#ring)" stroke-width="7"/>
  <path d="M50,76 C26,58 13,40 13,26 C13,15 22,9 31,9"
        fill="none" stroke="url(#innerRing)" stroke-width="2.5" opacity="0.55" stroke-linecap="round"/>
</svg>
